<svg width="34" height="33" viewBox="0 0 34 33" fill="none" xmlns="http://www.w3.org/2000/svg">
<circle cx="26" cy="9" r="8" fill="#C63C3C"/>
<path d="M25.346 13V5.74L23.72 6.73V5.332L25.346 4.36H26.624V13H25.346Z" fill="white"/>
<path d="M19.6666 26.6667C18.1939 26.6667 17 27.8606 17 29.3333C17 30.8061 18.1939 32 19.6666 32C21.1394 32 22.3333 30.8061 22.3333 29.3333C22.3333 27.8606 21.1394 26.6667 19.6666 26.6667ZM19.6666 26.6667L10.3333 26.6667C9.46766 26.7158 8.60947 26.4822 7.88803 26.0013C7.16659 25.5203 6.62096 24.818 6.33333 24L3.66667 8H1M19.6666 26.6667C20.5323 26.7158 21.3905 26.4822 22.112 26.0013C22.8334 25.5203 23.379 24.818 23.6667 24L25 14.6667H4.73333M11.6667 29.3333C11.6667 30.8061 10.4728 32 8.99999 32C7.52723 32 6.33333 30.8061 6.33333 29.3333C6.33333 27.8606 7.52723 26.6667 8.99999 26.6667C10.4728 26.6667 11.6667 27.8606 11.6667 29.3333Z" stroke="#454545" stroke-width="2" stroke-linecap="round" stroke-linejoin="round"/>
</svg>
